<?xml version="1.0" encoding="utf-8"?>
<!-- Generator: Adobe Illustrator 19.2.0, SVG Export Plug-In . SVG Version: 6.00 Build 0)  -->
<svg version="1.1" id="Layer_1" xmlns="http://www.w3.org/2000/svg" xmlns:xlink="http://www.w3.org/1999/xlink" x="0px" y="0px"
	 viewBox="0 0 1024 768" style="enable-background:new 0 0 1024 768;" xml:space="preserve">
<style type="text/css">
	.st0{fill:#FFFFFF;}
</style>
<path d="M374.3,527.2c-0.5-0.2-1.3-0.3-1.3-0.5c-0.1-0.9-0.1-1.9,0.2-2.7c1.8-4.2,3.2-8.7,5.7-12.4c23.3-34.3,47-68.3,70.2-102.7
	c6.5-9.6,11.8-20,17.6-30.2c0.8-1.4,1.1-3.2,1.2-5c-5.7,3.3-9.3,9.1-16.2,11.9c0.4-1.8,0.5-2.9,1-3.8c0.7-1.7,1.5-3.4,2.5-4.9
	c1.2-1.9,2.2-3.6,0.6-5.8c-0.4-0.6-0.2-2,0.3-2.8c17.2-28.3,33.8-57,53.4-83.8c4-5.4,8.4-10.5,11-16.8c2.8-6.7,1.9-9.9-3.3-14.9
	c-4.4-4.3-9.3-6.8-15.4-7.4c-2.7-0.2-3.7-2-2.9-4.5c1.5-4.5,4.7-7.7,8.5-10.2c3.3-2.3,5-5,4.5-9c-0.8-6.5,3.8-10,7.9-13.5
	c8.1-6.8,17.9-9.4,28.1-10.5c9-1,18.1-0.5,27.6,0.6c-4.3,5.8-9.3,10.9-10.4,18.4c9.1,6.3,14.8,15.8,20,25.4
	c3.3,5.9,8.1,10.3,12.5,15.2c1.7,1.9,3.5,3.8,5.3,5.7c5.5,5.5,7.7,12.3,8,19.9c0.8,21.3-3,41.6-13.5,60.4
	c-10.6,18.8-25.1,33.5-44.8,42.7c-2,1-3.9,2.4-5.8,3.6c0.1,0.3,0.1,0.5,0.2,0.8c0.9,0.1,1.8,0.3,2.8,0.4c11.1,0.3,22.2,0.3,33.2,1.1
	c3.2,0.2,4.9-0.8,6.9-2.7c15-13.7,30-27.5,45.1-41c2.4-2.2,5.4-3.8,8.4-5.1c2.5-1,5.5-1.3,7.5,1.4c1.6,2.2,1.3,6.3-1,8.8
	c-3.2,3.5-6.6,6.8-10,10.1c-13.2,12.7-26.4,25.4-39.7,38c-1.4,1.4-2.1,2.8-2.3,4.8c-0.7,7.1-4.7,10.5-12,10.5
	c-0.7,0-1.6,0.3-2.1,0.8c-10.2,9.7-21,18.8-29.4,30.2c-0.9,1.3-1.4,2.4-1.3,4c0.4,6.1-3.6,9-9.3,6.6c-8.5,8.7-17.1,17.3-25.6,26.2
	c-8.8,9.2-17.5,18.6-26.2,27.8c-3.6,3.9-8.9,4.4-12.5,1.3c-3.5-2.9-4-8.3-0.6-12.3c7-8.1,14.2-16.1,21.6-23.9
	c9.1-9.5,18.4-18.8,27.6-28.2c0.7-0.7,1.1-1.9,1.3-3c0.5-2.5,0.8-5.1,1-7.7c0.1-0.8-0.3-2-0.9-2.5c-10.1-9.2-20.3-18.3-30.5-27.4
	c-2.4-2.2-4.3-2-6.4,0.5c-9.7,11.8-19.8,23.4-29,35.6c-6.1,8.1-11,17.3-16.4,25.9c-10,16-19.9,32.2-30,48.1c-1.7,2.7-4.4,5-6.9,7.2
	c-2.4,2.1-3.2,1.9-5.8,0c-3.7,5.5-7.3,11.1-11,16.6c-0.4,0.6-0.6,1.2-1.1,1.7c-1.4,1.6-2.8,1.3-3.5-0.7c-0.4-1.1-0.5-2.2-0.7-3.2
	c-1.6,0.8-3.2,2.1-5,2.4c-2.4,0.5-2.8-1.8-3.4-3.5c-2.4,1.1-4.7,2.2-7.1,3c-1.1,0.4-3,0.3-3.6-0.4c-0.6-0.7-0.2-2.5,0.2-3.6
	c1.3-3,2.9-5.8,4.3-8.7C374.2,528.7,374.2,527.9,374.3,527.2c0.1,0,0.3,0.1,0.4,0.2C374.6,527.3,374.5,527.2,374.3,527.2z
	 M576,396.3c-4.5,0-8.4,0.1-12.3,0c-16.6-0.3-33.3-0.6-49.9-0.9c-2.4,0-3.9,1.3-4.2,3.7c-0.3,2.4-0.5,4.8-0.6,7.2
	c-0.2,2.7,0.9,4.9,2.8,6.6c6.8,6.2,13.5,12.3,20.3,18.5c4,3.6,10.2,3.7,13.9-0.1c8.1-8.3,15.9-16.8,24.2-25.6
	C569.9,402.6,574,400.4,576,396.3z"/>
<path class="st0" d="M374.3,527.2c0.1,0.1,0.3,0.1,0.4,0.2C374.6,527.3,374.5,527.2,374.3,527.2
	C374.3,527.1,374.3,527.2,374.3,527.2z"/>
</svg>
