<?xml version="1.0" encoding="utf-8"?>
<!-- Generator: Adobe Illustrator 19.2.0, SVG Export Plug-In . SVG Version: 6.00 Build 0)  -->
<svg version="1.1" id="Layer_1" xmlns="http://www.w3.org/2000/svg" xmlns:xlink="http://www.w3.org/1999/xlink" x="0px" y="0px"
	 viewBox="0 0 1024 768" style="enable-background:new 0 0 1024 768;" xml:space="preserve">
<style type="text/css">
	.st0{fill:#FFFFFF;}
</style>
<path d="M599.6,447.6c4.3-5.5,8.8-10.9,13-16.5c15.5-20.9,29.4-42.8,39.7-66.8c1.6-3.7,3-7.6,4.5-11.4c0.1-0.2,0.1-0.5,0.2-0.6
	c-3.1-2.1-6.4-4.1-9.3-6.4c-6.2-4.9-5.6-9.3,1.7-12.3c9-3.7,18.3-4,27.6-1.1c2.5,0.8,5.1,2.3,7,4.2c7,6.8,11.4,15,13.4,24.6
	c0.2,1,0.3,2.2,0.2,3.2c-0.2,3.2-1.9,4.9-5,4.4c-3.2-0.5-6.4-1.7-9.5-2.8c-2-0.7-3.9-1.8-6-2.8c-0.3,0.4-0.7,0.7-0.9,1.1
	c-20.7,35.6-46.1,67.6-74.1,97.8c-5.4,5.8-9.8,12.6-14.9,18.7c-9.1,10.7-19.1,20.6-30.6,28.9c-10.8,7.8-22.5,10.9-35.8,9.1
	c-21.1-2.8-41.1-8.9-59.5-19.8c-9.1-5.4-17.3-11.9-24.1-20c-1.2-1.4-2.3-1.6-4.1-1.5c-4.4,0.5-8.8,0.7-13.2,0.9
	c-1.1,0.1-2.3-0.2-3.4-0.4c-3.7-0.9-4.7-2.9-3.3-6.5c3.2-8.2,15.9-16.6,24.6-15.6c8.2,0.9,15.3,4.6,20.9,10.7
	c3.1,3.3,2.4,6.2-1.9,7.6c-3.6,1.2-7.4,1.8-11,2.6c8.5,18.1,52.8,37.9,80.1,35.5c-0.8-0.8-1.5-1.4-2.1-1.9
	c-21.8-20.4-43.9-40.3-65.2-61.2c-24.8-24.3-47.7-50.3-67.2-79.1c-5-7.4-9.6-15.2-14.5-22.8c-4.8,1.7-9.6,3.7-14.6,5.1
	c-4.7,1.3-9.5,2.5-14.4,3c-8,0.7-11.6-3.3-9.6-11.1c1.3-5.5,3.5-10.9,6-16c3.7-7.4,8.9-13.8,15-19.5c9.2-8.6,20.1-11,32.2-9
	c8.5,1.4,16.4,4.4,23.1,10c1.7,1.4,3.2,3.2,4.4,5c2.9,4.4,2.8,8.8-1.2,12.2c-3.9,3.3-8.4,5.9-12.8,8.6c-2.3,1.4-5,2.3-7.7,3.5
	c4.1,10.9,9.3,21.2,15.1,31.2c1.4-3.1,2.4-6.2,4-9c5-9,11.9-16.2,20.4-21.9c7.5-4.9,15.7-5.6,24.2-4.2c8.6,1.4,16.9,3.9,24.4,8.3
	c3.5,2.1,6.7,4.8,10.1,7.4c-1.4-21.8-1.7-43.9,0.9-66.3c-4.5-0.5-8.9-0.7-13.2-1.5c-6.5-1.2-13.1-2.4-19.4-4.5
	c-9.3-3.3-11-9.2-5.7-17.5c5.1-8,12.1-13.9,19.8-19.1c8-5.5,16.5-9.9,26-12.4c8.2-2.2,16-1.5,23.5,2.4c16.8,8.7,30.3,21.1,40.7,36.8
	c1.7,2.6,2.7,5.7,3.8,8.6c0.4,1.2,0.2,2.7,0.3,4c19.5,1.7,36.7,9.8,52.3,21.8c2.5,1.9,4.7,4.3,6.5,6.9c3.4,4.6,2.6,8.8-2.6,11.1
	c-5.2,2.3-10.8,3.9-16.3,5.1c-6.2,1.3-12.6,1.9-19.1,2.8c0.6,25.4-1.6,50.5-5.6,75.5c-4.1,25-10,49.5-18.1,74.1
	c0.7-0.5,1.1-0.7,1.4-0.9c13.1-12.4,23.6-26.4,29.3-43.7c2.9-8.9,4.2-18,3.9-27.3c0-1.6-0.7-2-2.2-2.4c-3.1-0.7-6.2-1.3-9.1-2.5
	c-3.3-1.3-3.6-3.5-1.1-6c5.2-4.9,11.5-7.6,18.6-8c1.1-0.1,2.2,0.1,3.2,0.5c6.4,2.3,11.3,6.3,14.6,12.3c2.1,3.9,1,6.1-3.4,6.4
	c-2.7,0.2-5.5-0.2-8.2-0.4c-0.8-0.1-1.6-0.2-2.5-0.4c-1,4.4-1.9,8.6-2.9,12.7c-2.3,9.3-5.7,18.2-10.2,26.7c-0.3,0.7-0.6,1.4-0.9,2
	c0,0.4-0.1,0.8-0.1,1.3c-0.4,0.1-0.7,0.2-1.1,0.4c0,0,0.1,0.1,0.1,0.1c0-0.1-0.1-0.1-0.1-0.2c0.3-0.1,0.7-0.2,1-0.3
	C599.4,448.3,599.5,448,599.6,447.6z M520.5,499.2C520.6,499.2,520.6,499.1,520.5,499.2C520.5,499.1,520.5,499.2,520.5,499.2
	c-0.4-0.2-0.6-0.4-0.9-0.5c-0.6-1.2-1-2.5-1.8-3.5c-13.7-18.2-26.6-36.8-38.5-56.3c-11.8-19.5-22.4-39.7-31.4-60.7
	c-0.5-1.3-0.7-2.6-2.9-2c-8.8,2.5-17.6,5.1-27.3,4.3c0.5,0.9,0.8,1.5,1.2,2c6.5,9.1,12.7,18.4,19.4,27.3
	c21.7,28.4,46,54.5,71.5,79.4c3.3,3.2,6.5,6.4,9.7,9.6C520,498.9,520.3,499,520.5,499.2z M554.4,473.9c0.4-0.8,0.8-1.6,1-2.4
	c6.9-24.6,11.4-49.6,13.4-75.1c0.6-7.2,0.8-14.4,1.2-21.7c-4,0.9-7.8,1.7-11.3,2.5c0.2,12.6,0.8,25.1,0.4,37.5
	c-0.5,14.7-1.9,29.4-3,44.1C555.8,463.9,555,468.9,554.4,473.9c-0.1,0.5-0.2,0.9-0.4,1.3c0.1,0,0.2,0.1,0.4,0.1
	C554.4,474.9,554.4,474.4,554.4,473.9z M535.5,504.4c0,0.1,0,0.1,0,0.2c0,0,0.1,0.1,0.1,0.1C535.6,504.6,535.5,504.6,535.5,504.4
	c-1.1-2.1-2.1-4.3-3.2-6.4c-19.1-39-29.4-80.4-34.9-123.3c-0.8-6.2-1.4-12.4-2-18.5c-7.5,9.5-19.1,10.6-29.4,14.4
	c3,12.6,7.2,24.7,12.2,36.5c14.5,34.3,33.8,65.8,55.7,95.7C534.4,503.5,535,503.9,535.5,504.4z M524.6,287.4
	c-0.2,0.7-0.4,1.3-0.5,1.9c-2.6,14.4-3.6,28.9-3.8,43.5c-0.2,17.5,0.9,35,2.8,52.3c3.9,34,10.6,67.5,19.6,100.6
	c0.2,0.6,0.5,1.3,0.9,2.3c0.2-0.7,0.4-0.9,0.4-1.1c2.4-20.7,3.7-41.5,2.8-62.3c-0.7-14.7-2.3-29.4-6.1-43.7c-0.4-1.6-1-2.1-2.7-2
	c-3.1,0.1-6.2,0-9.2-0.5c-3.3-0.6-4.2-2.6-3.2-5.7c0.3-0.9,0.7-1.9,1.3-2.7c4.4-6.5,10.4-11,17.9-13.2c1.7-0.5,3.6-0.6,5.4-0.4
	c6.7,0.7,12.5,3.8,17.8,7.8c0.7,0.5,1.3,1.1,2,1.6c0.3-0.1,0.5-0.2,0.8-0.3c-1.3-11.5-2.5-22.9-3.7-34.3c-7.8,0.5-15.2,1.1-22.6,1.5
	c-5.7,0.3-11.3,0.1-16.8-1.8c-4.5-1.6-5.9-4.3-4.7-9c0.4-1.6,1-3.2,1.7-4.7c3.6-7.4,8.7-13.6,14.7-19.1c3.6-3.4,7.6-6.3,11.4-9.4
	C542.2,288.3,533.5,287.9,524.6,287.4z"/>
<path class="st0" d="M554.4,473.9c0,0.5,0,0.9,0,1.4c-0.1,0-0.2-0.1-0.4-0.1C554.2,474.8,554.3,474.4,554.4,473.9
	C554.5,474,554.4,473.9,554.4,473.9z"/>
<path class="st0" d="M599.6,447.6c-0.1,0.4-0.2,0.7-0.3,1.1l0,0c0-0.4,0.1-0.8,0.1-1.3C599.5,447.5,599.6,447.6,599.6,447.6z"/>
<path class="st0" d="M599.3,448.7c-0.3,0.1-0.7,0.2-1,0.3l0,0.1C598.6,449,599,448.8,599.3,448.7
	C599.3,448.7,599.3,448.7,599.3,448.7z"/>
<path class="st0" d="M598.3,449c0,0.1,0.1,0.1,0.1,0.2C598.3,449.1,598.3,449.1,598.3,449C598.3,449.1,598.3,449,598.3,449z"/>
<path class="st0" d="M519.6,498.7c0.3,0.2,0.5,0.3,0.8,0.5l0.1,0C520.3,499,520,498.9,519.6,498.7
	C519.7,498.7,519.6,498.7,519.6,498.7z"/>
<path class="st0" d="M520.4,499.2c0.1,0,0.1,0,0.2-0.1C520.6,499.1,520.6,499.2,520.4,499.2C520.5,499.2,520.4,499.2,520.4,499.2z"
	/>
<path class="st0" d="M535.5,504.5c0.1,0.1,0.1,0.2,0.2,0.2c0,0-0.1,0-0.1-0.1C535.5,504.6,535.5,504.5,535.5,504.5
	C535.5,504.4,535.5,504.5,535.5,504.5z"/>
</svg>
