<?xml version="1.0" encoding="utf-8"?>
<!-- Generator: Adobe Illustrator 19.2.0, SVG Export Plug-In . SVG Version: 6.00 Build 0)  -->
<svg version="1.1" id="Layer_1" xmlns="http://www.w3.org/2000/svg" xmlns:xlink="http://www.w3.org/1999/xlink" x="0px" y="0px"
	 viewBox="0 0 1024 768" style="enable-background:new 0 0 1024 768;" xml:space="preserve">
<path d="M401,454.6c3,0,5.5,0,7.9,0c0.1-0.2,0.2-0.4,0.3-0.5c-0.7-0.6-1.4-1.2-2.2-1.6c-5.2-3.1-10.5-6.1-15.7-9.3
	c-1-0.6-2.1-1.5-2.7-2.5c-5.9-9.8-11.8-19.7-17.7-29.6c-0.1-0.2-0.1-0.5-0.3-1.1c2.6,0.7,5,1.3,7.4,2c0.1-0.2,0.2-0.3,0.3-0.5
	c-0.5-0.7-1-1.5-1.5-2.2c-4.1-5.3-8.4-10.6-12.4-16c-1-1.3-1.8-3-2.2-4.6c-2.5-9.7-4.8-19.4-7.2-29.1c-0.2-0.7-0.3-1.4-0.6-2.7
	c2.4,1.1,4.4,2,6.3,3c0.2-0.1,0.3-0.2,0.5-0.4c-0.3-0.8-0.6-1.6-1-2.3c-1.9-3.7-3.8-7.4-5.8-11.1c-1.5-2.7-2.5-5.4-2.7-8.5
	c-0.5-8.6-1.1-17.3-1.6-25.9c0-0.4,0.1-0.8,0.2-1.6c2,0.8,3.7,1.5,5.9,2.5c-0.3-1.1-0.4-1.7-0.7-2.3c-1-2.2-1.8-4.5-3.1-6.5
	c-2.6-4-2.3-8.1-1.2-12.4c0.4-1.7,1.4-2.1,3-2.1c4.8,0,8.8,1.5,12.2,5.1c1.8,1.9,4,3.4,6.6,4.7c-0.2-1.9-0.4-3.8-0.7-6
	c1.2,0.4,2.2,0.6,3.1,0.9c8.1,2.7,16.3,5.4,24.4,8.1c1.4,0.5,2.9,1.3,4,2.3c3.8,3.3,7.4,6.7,11.1,10.1c0.7,0.6,1.4,1.2,2.7,1.5
	c-0.3-2-0.6-4.1-1.1-6.6c1.1,0.4,1.9,0.6,2.6,0.9c8.9,4.8,17.9,9.7,26.8,14.6c1.1,0.6,2,1.5,2.8,2.4c4.2,5.4,8.3,10.8,12.5,16.3
	c0.6,0.8,1.3,1.6,2.5,2.2c0-2.5,0-4.9,0-7.7c2.9,2.8,5.6,5.2,8.1,7.8c5.5,5.5,10.9,11,16.2,16.7c1.1,1.2,2.1,2.8,2.6,4.4
	c1.8,5.8,3.3,11.7,5,17.5c0.2,0.8,0.5,1.5,1.4,2.4c0.7-2.6,1.3-5.3,2.2-8.5c0.7,1.3,1.1,2,1.5,2.8c3.2,6.6,6.2,13.3,9.5,19.8
	c1.6,3.1,1.8,6.2,1.5,9.4c-0.2,1.7-0.2,3.5-0.4,5.2c-0.4,2.4,0.7,4,2.5,5.4c1.8-1,2.4-2.6,2.2-4.6c-0.3-2.6-0.5-5.3-0.8-7.9
	c-0.3-3.1,0.2-5.9,1.6-8.7c3.6-7.2,7-14.6,10.8-22.6c0.9,3.4,1.6,6,2.3,8.7c0.2,0,0.4,0,0.6,0c0.3-1,0.7-2,1-3
	c1.2-4.3,2.7-8.6,3.6-13c1-4.8,3.5-8.4,6.9-11.8c6.6-6.4,12.9-13,19.3-19.6c0.5-0.5,1-0.9,1.8-1.6c0,2.9,0,5.3,0,7.8
	c0.2,0.1,0.4,0.2,0.5,0.3c0.6-0.7,1.2-1.4,1.8-2.1c4.2-5.5,8.4-11,12.6-16.5c0.7-1,1.7-1.9,2.7-2.5c9-5,18-9.8,27-14.7
	c0.6-0.3,1.3-0.5,2.5-1c-0.4,2.5-0.7,4.6-1.2,7.5c1.2-1,1.9-1.4,2.5-2c3.4-3.1,6.7-6.3,10.2-9.2c1.9-1.6,4.2-3,6.5-3.8
	c7.7-2.8,15.5-5.2,23.2-7.8c0.9-0.3,1.7-0.5,3-0.9c-0.3,2.2-0.5,4.1-0.7,6c0.2,0.1,0.3,0.2,0.5,0.3c2.4-2,5.1-3.7,7.1-6
	c3.3-3.7,7.5-3.9,11.8-4.1c0.7,0,2,1,2.2,1.7c1.2,4.1,1.9,8.1-0.7,12.2c-1.7,2.7-2.8,5.8-4.1,8.7c0.2,0.2,0.3,0.3,0.5,0.5
	c1.7-0.7,3.4-1.4,5.5-2.3c0.1,0.9,0.3,1.6,0.2,2.3c-0.6,9.1-1.2,18.3-1.9,27.4c-0.1,1.3-0.5,2.6-1.1,3.8c-2.7,5.3-5.4,10.5-8.2,15.7
	c0.1,0.2,0.3,0.4,0.4,0.6c2-0.9,4-1.8,6.5-2.9c-0.7,2.9-1.2,5.3-1.8,7.7c-2,8.2-3.9,16.3-6.1,24.5c-0.4,1.6-1.3,3.1-2.2,4.4
	c-4.1,5.4-8.3,10.7-12.4,16c-0.5,0.6-0.9,1.3-1.1,2.6c2.4-0.7,4.8-1.3,7.7-2.1c-1.2,2.1-2.1,3.7-3,5.2c-4.9,8.2-9.6,16.4-14.6,24.4
	c-1,1.5-2.4,2.9-4,3.9c-4.9,3.1-10,6-15,8.9c-0.8,0.5-1.5,1-2.2,1.5c0,0.2,0.1,0.4,0.1,0.7c2.5,0,5.1,0,7.6,0
	c0.1,0.2,0.1,0.5,0.2,0.7c-1.5,1.3-3,2.7-4.6,4c-4.9,4.1-9.7,8.4-14.8,12.3c-1.7,1.3-3.9,2.2-5.9,2.7c-4.8,1.1-9.7,1.8-14.5,2.6
	c-0.5,0.1-0.9,0.3-2.1,0.8c2.8,1.2,5,2.2,7.5,3.3c-0.9,0.5-1.5,0.9-2.1,1.2c-9.1,3.8-18.1,7.6-27.2,11.4c-1.4,0.6-3.1,0.8-4.6,0.8
	c-5,0.3-9.9,0.4-14.9,0.6c-0.2,0.2-0.3,0.5-0.5,0.7c1.1,0.6,2.2,1.3,3.3,1.9c-0.2,0.3-0.4,0.7-0.6,1c-1.6,0.3-3.1,0.9-4.7,1
	c-4.2,0.1-8.5,0.1-12.7,0c-2.1,0-3.4-1.1-4.6-2.9c-3.9-6.1-4-4.1,0.4-9.6c31.4-39.2,62.2-78.9,91.9-119.4c0.7-0.9,1.3-1.9,1.7-3
	c-33.7,40.9-65.9,83-97.7,126.1c-1.8-2.5-3.4-4.7-5.3-7.2c-2.1,2.8-3.9,5.4-5.9,8.1c-16-21.1-31.7-42.1-47.7-62.9
	c-15.9-20.7-32.2-41.2-48.3-61.7c-0.3,0.2-0.5,0.4-0.8,0.5c0.6,1,1.2,2,1.9,2.9c15.9,21.1,31.7,42.3,47.8,63.2
	c14.7,19.1,29.9,38,44.9,56.9c1.3,1.6,1.1,2.6,0.3,4.4c-2.3,4.6-5.7,6.3-10.7,5.9c-3.6-0.3-7.1-0.4-10.7-0.7
	c-0.9-0.1-1.7-0.4-2.8-1.4c1.1-0.6,2.1-1.3,3.2-1.9c-0.1-0.3-0.3-0.5-0.4-0.8c-0.6-0.1-1.1-0.3-1.7-0.4c-4.7-0.2-9.3-0.3-14-0.5
	c-1.1,0-2.2-0.1-3.2-0.5c-9.5-3.9-19.1-8-28.6-12c-0.4-0.2-0.8-0.5-1.5-0.9c2.5-1.1,4.6-2,6.8-3c0-0.2,0-0.5,0-0.7
	c-1.4-0.3-2.9-0.7-4.3-0.9c-4.5-0.8-9-1.6-13.5-2.4c-0.9-0.2-1.8-0.5-2.5-1c-6.8-5.7-13.5-11.4-20.3-17.1
	C401.6,455.7,401.5,455.3,401,454.6z"/>
</svg>
