<?xml version="1.0" encoding="utf-8"?>
<!-- Generator: Adobe Illustrator 19.2.0, SVG Export Plug-In . SVG Version: 6.00 Build 0)  -->
<svg version="1.1" id="Layer_1" xmlns="http://www.w3.org/2000/svg" xmlns:xlink="http://www.w3.org/1999/xlink" x="0px" y="0px"
	 viewBox="0 0 1024 768" style="enable-background:new 0 0 1024 768;" xml:space="preserve">
<path d="M551.4,386.3c-3.4,0.8-5.6-0.8-7.1-3.4c-1-1.7-1.4-3.7-1.9-5.6c-0.6-2-0.8-4.1-1.5-6c-0.7-2.3-2.4-3.9-4.8-4.2
	c-2.8-0.3-3.7-2.3-4.8-4.4c4.1-2.1,4.4-2.9,3.6-7.5c-0.2-1.1-0.4-2.3-0.7-3.4c-0.4-2.1,0.3-3.8,2.1-4.9c1.4-0.9,2.9-1.6,4.2-2.7
	c0.7-0.6,1-1.6,1.5-2.4c-1-0.1-2.1-0.5-2.8-0.1c-1.9,0.9-3.6,2.1-5.3,3.3c-2.5,1.9-3.5,4.4-2.7,7.5c0.3,1.5,0.5,2.9,0.9,4.4
	c0.5,2.5-1.3,2.6-2.8,2.7c-1.7,0.1-3-0.4-3.2-2.6c-0.1-1.5-0.4-3.2-1.3-4.4c-1.8-2.5-4.1-4.7-6.2-7c1.1-1.5,2-1.9,4-1.3
	c1.3,0.4,2.6,1.2,3.9,1.6c0.6,0.2,1.3-0.2,2-0.3c-0.1-0.7,0-1.5-0.4-2c-3.2-3.4-9.5-3.2-12.4,0.4c-1.4,1.8-5.2,1.8-6.7,0
	c-2.8-3.6-9.4-3.8-12.4-0.4c-0.4,0.4-0.5,1.6-0.3,1.9c0.3,0.4,1.4,0.5,1.9,0.4c1.4-0.4,2.7-1.3,4.2-1.6c1.6-0.4,3.1-0.1,4,1.8
	c-0.7,0.5-1.4,0.9-2,1.4c-2.9,2.4-5.4,5.1-6.1,9.1c-0.2,1-0.7,2.6-1.3,2.7c-1.3,0.2-2.8-0.1-4-0.7c-0.4-0.2-0.2-1.7-0.2-2.7
	c0-0.5,0.2-1,0.3-1.5c1.3-6.4-2.1-11.8-8.5-13.2c-0.6-0.1-1.3,0.3-2,0.5c0.3,0.7,0.4,1.5,0.8,2.1c0.2,0.4,0.8,0.5,1.3,0.8
	c6.6,3.9,6.6,3.9,4.9,11.5c-0.8,3.6-0.4,4.4,2.9,5.7c0.4,0.1,0.7,0.4,1.6,0.8c-1.5,1.5-2.7,3.5-4.2,3.9c-4.5,1-6.4,3.9-7.1,7.9
	c-0.4,2-0.5,4-1.1,5.9c-1.3,4.5-4.1,6.3-8.4,5.9c-0.6,0-1.3,0.6-2,0.9c0.4,0.6,0.7,1.6,1.3,1.8c2.5,1,4.9,0.5,7.1-1
	c3.1-2.2,4.7-5.3,5.4-8.9c0.4-2,0.6-4.1,1.2-6.1c0.3-1.1,1.3-2,2-2.9c0.2,0.1,0.4,0.3,0.7,0.4c-0.1,0.4-0.1,0.8-0.2,1.1
	c-2.1,6.8-3.2,13.6-2.2,20.7c0.1,0.8-0.1,1.7-0.4,2.4c-1.6,4.2-1.9,8.4-1.2,12.8c0.3,1.9,0.7,3.8,0.8,5.7c0.2,3.3-0.6,4.7-3.7,6
	c-1.6,0.7-3.4,0.9-5,1.6c-0.8,0.3-1.3,1.3-1.9,1.9c0.8,0.3,1.7,1,2.5,0.9c2.2-0.5,4.4-1.1,6.4-2.1c3.9-1.8,5.3-4.7,4.8-8.9
	c-0.3-2.2-0.8-4.4-1-6.7c-0.2-2.1,0-4.2,0-6.3c0.2,0,0.5-0.1,0.7-0.1c5.1,9.6,11.4,17.8,23.4,18c12.2,0.2,18.7-8,24.5-17.4
	c0.1,0.8,0.4,1.6,0.3,2.4c-0.3,3.5-0.7,6.9-1.1,10.4c-0.3,2.9,0.1,5.8,2.8,7.3c2.8,1.6,5.9,2.5,9,3.5c0.5,0.2,1.3-0.6,2-1
	c-0.5-0.6-0.8-1.5-1.4-1.8c-0.9-0.5-2.1-0.6-3.1-0.9c-5.9-1.8-6.9-3.3-5.8-9.4c1-5.5,1.1-10.9-0.9-16.3c-0.2-0.6-0.3-1.3-0.2-1.9
	c0.9-6.9,0-13.6-2-20.2c-0.2-0.6-0.2-1.2-0.3-1.8c0.2-0.1,0.4-0.2,0.7-0.4c0.7,1,1.6,1.8,1.9,2.9c0.6,1.7,0.8,3.6,1.1,5.4
	c0.6,3.7,1.9,6.9,4.9,9.3c2.3,1.8,4.9,2.6,7.7,1.5c0.6-0.2,0.9-1.3,1.4-2C552.8,386.8,552,386.2,551.4,386.3z"/>
</svg>
