<?xml version="1.0" encoding="UTF-8" standalone="no"?>
<!-- Generator: Adobe Illustrator 19.2.0, SVG Export Plug-In . SVG Version: 6.00 Build 0)  -->

<svg
   xmlns:dc="http://purl.org/dc/elements/1.1/"
   xmlns:cc="http://creativecommons.org/ns#"
   xmlns:rdf="http://www.w3.org/1999/02/22-rdf-syntax-ns#"
   xmlns:svg="http://www.w3.org/2000/svg"
   xmlns="http://www.w3.org/2000/svg"
   xmlns:sodipodi="http://sodipodi.sourceforge.net/DTD/sodipodi-0.dtd"
   xmlns:inkscape="http://www.inkscape.org/namespaces/inkscape"
   version="1.1"
   id="Layer_1"
   x="0px"
   y="0px"
   viewBox="0 0 182.2 182.46139"
   xml:space="preserve"
   inkscape:version="0.48.4 r9939"
   width="100%"
   height="100%"
   sodipodi:docname="insect.svg"><metadata
     id="metadata3184"><rdf:RDF><cc:Work
         rdf:about=""><dc:format>image/svg+xml</dc:format><dc:type
           rdf:resource="http://purl.org/dc/dcmitype/StillImage" /></cc:Work></rdf:RDF></metadata><defs
     id="defs3182" /><sodipodi:namedview
     pagecolor="#ffffff"
     bordercolor="#666666"
     borderopacity="1"
     objecttolerance="10"
     gridtolerance="10"
     guidetolerance="10"
     inkscape:pageopacity="0"
     inkscape:pageshadow="2"
     inkscape:window-width="885"
     inkscape:window-height="869"
     id="namedview3180"
     showgrid="false"
     fit-margin-top="50"
     fit-margin-right="50"
     fit-margin-bottom="50"
     fit-margin-left="50"
     inkscape:zoom="1.6130873"
     inkscape:cx="116.57316"
     inkscape:cy="33.121494"
     inkscape:window-x="49"
     inkscape:window-y="24"
     inkscape:window-maximized="0"
     inkscape:current-layer="Layer_1" /><path
     d="m 132.43951,89.550454 c -3.4,0.8 -5.6,-0.8 -7.1,-3.4 -1,-1.7 -1.4,-3.7 -1.9,-5.6 -0.6,-2 -0.8,-4.1 -1.5,-6 -0.7,-2.3 -2.4,-3.9 -4.8,-4.2 -2.8,-0.3 -3.7,-2.3 -4.8,-4.4 4.1,-2.1 4.4,-2.9 3.6,-7.5 -0.2,-1.1 -0.4,-2.3 -0.7,-3.4 -0.4,-2.1 0.3,-3.8 2.1,-4.9 1.4,-0.9 2.9,-1.6 4.2,-2.7 0.7,-0.6 1,-1.6 1.5,-2.4 -1,-0.1 -2.1,-0.5 -2.8,-0.1 -1.9,0.9 -3.6,2.1 -5.3,3.3 -2.5,1.9 -3.5,4.4 -2.7,7.5 0.3,1.5 0.5,2.9 0.9,4.4 0.5,2.5 -1.3,2.6 -2.8,2.7 -1.7,0.1 -3,-0.4 -3.2,-2.6 -0.1,-1.5 -0.4,-3.2 -1.3,-4.4 -1.8,-2.5 -4.1,-4.7 -6.2,-7 1.1,-1.5 2,-1.9 4,-1.3 1.3,0.4 2.6,1.2 3.9,1.6 0.6,0.2 1.3,-0.2 2,-0.3 -0.1,-0.7 0,-1.5 -0.4,-2 -3.2,-3.400001 -9.5,-3.200001 -12.400004,0.4 -1.4,1.8 -5.2,1.8 -6.7,0 -2.8,-3.600001 -9.4,-3.800001 -12.4,-0.4 -0.4,0.4 -0.5,1.6 -0.3,1.9 0.3,0.4 1.4,0.5 1.9,0.4 1.4,-0.4 2.7,-1.3 4.2,-1.6 1.6,-0.4 3.1,-0.1 4,1.8 -0.7,0.5 -1.4,0.9 -2,1.4 -2.9,2.4 -5.4,5.1 -6.1,9.1 -0.2,1 -0.7,2.6 -1.3,2.7 -1.3,0.2 -2.8,-0.1 -4,-0.7 -0.4,-0.2 -0.2,-1.7 -0.2,-2.7 0,-0.5 0.2,-1 0.3,-1.5 1.3,-6.4 -2.1,-11.8 -8.5,-13.2 -0.6,-0.100001 -1.3,0.3 -2,0.5 0.3,0.7 0.4,1.5 0.8,2.1 0.2,0.4 0.8,0.5 1.3,0.8 6.6,3.9 6.6,3.9 4.9,11.5 -0.8,3.6 -0.4,4.4 2.9,5.7 0.4,0.1 0.7,0.4 1.6,0.8 -1.5,1.5 -2.7,3.5 -4.2,3.9 -4.5,1 -6.4,3.9 -7.1,7.9 -0.4,2 -0.5,4 -1.1,5.9 -1.3,4.5 -4.1,6.3 -8.4,5.9 -0.6,0 -1.3,0.6 -2,0.9 0.4,0.6 0.7,1.6 1.3,1.8 2.5,1 4.9,0.5 7.1,-1 3.1,-2.2 4.7,-5.3 5.4,-8.9 0.4,-2 0.6,-4.1 1.2,-6.1 0.3,-1.1 1.3,-2 2,-2.9 0.2,0.1 0.4,0.3 0.7,0.4 -0.1,0.4 -0.1,0.8 -0.2,1.1 -2.1,6.8 -3.2,13.6 -2.2,20.700003 0.1,0.8 -0.1,1.7 -0.4,2.4 -1.6,4.200003 -1.9,8.400003 -1.2,12.800003 0.3,1.9 0.7,3.8 0.8,5.7 0.2,3.3 -0.6,4.7 -3.7,6 -1.6,0.7 -3.4,0.9 -5,1.6 -0.8,0.3 -1.3,1.3 -1.9,1.9 0.8,0.3 1.7,1 2.5,0.9 2.2,-0.5 4.4,-1.1 6.4,-2.1 3.9,-1.8 5.3,-4.7 4.8,-8.9 -0.3,-2.2 -0.8,-4.4 -1,-6.7 -0.2,-2.1 0,-4.2 0,-6.3 0.2,0 0.5,-0.1 0.7,-0.1 5.1,9.6 11.4,17.8 23.4,18 12.200004,0.2 18.700004,-8 24.500004,-17.4 0.1,0.8 0.4,1.6 0.3,2.4 -0.3,3.5 -0.7,6.9 -1.1,10.4 -0.3,2.9 0.1,5.8 2.8,7.3 2.8,1.6 5.9,2.5 9,3.5 0.5,0.2 1.3,-0.6 2,-1 -0.5,-0.6 -0.8,-1.5 -1.4,-1.8 -0.9,-0.5 -2.1,-0.6 -3.1,-0.9 -5.9,-1.8 -6.9,-3.3 -5.8,-9.4 1,-5.5 1.1,-10.9 -0.9,-16.300003 -0.2,-0.6 -0.3,-1.3 -0.2,-1.9 0.9,-6.900003 0,-13.600003 -2,-20.200003 -0.2,-0.6 -0.2,-1.2 -0.3,-1.8 0.2,-0.1 0.4,-0.2 0.7,-0.4 0.7,1 1.6,1.8 1.9,2.9 0.6,1.7 0.8,3.6 1.1,5.4 0.6,3.7 1.9,6.9 4.9,9.3 2.3,1.8 4.9,2.6 7.7,1.5 0.6,-0.2 0.9,-1.3 1.4,-2 -0.7,-0.2 -1.5,-0.8 -2.1,-0.7 z"
     id="path3178"
     inkscape:connector-curvature="0"
     style="fill:#226764;fill-opacity:1" /><text
     xml:space="preserve"
     style="font-size:24px;font-style:normal;font-weight:normal;line-height:125%;letter-spacing:0px;word-spacing:0px;fill:#226764;fill-opacity:1;stroke:none;font-family:Sans"
     x="65.712502"
     y="153.32469"
     id="text3202"
     sodipodi:linespacing="125%"><tspan
       sodipodi:role="line"
       x="65.712502"
       y="153.32469"
       id="tspan3210">Bugs</tspan></text>
</svg>